<svg viewBox="0 0 1427 408" fill="none" xmlns="http://www.w3.org/2000/svg">
<path d="M512 204V64H578.2C593.667 64 607.267 66.8667 619 72.6C630.733 78.3333 639.867 86.4 646.4 96.8C653.067 107.2 656.4 119.6 656.4 134C656.4 148.267 653.067 160.667 646.4 171.2C639.867 181.6 630.733 189.667 619 195.4C607.267 201.133 593.667 204 578.2 204H512ZM551.6 172.4H576.6C584.6 172.4 591.533 170.933 597.4 168C603.4 164.933 608.067 160.533 611.4 154.8C614.733 148.933 616.4 142 616.4 134C616.4 125.867 614.733 118.933 611.4 113.2C608.067 107.467 603.4 103.133 597.4 100.2C591.533 97.1333 584.6 95.6 576.6 95.6H551.6V172.4ZM732.234 205.8C719.434 205.8 708.234 203.4 698.634 198.6C689.168 193.667 681.768 187 676.434 178.6C671.234 170.067 668.634 160.4 668.634 149.6C668.634 138.8 671.168 129.2 676.234 120.8C681.434 112.267 688.568 105.667 697.634 101C706.701 96.2 716.901 93.8 728.234 93.8C738.901 93.8 748.634 96 757.434 100.4C766.234 104.667 773.234 111 778.434 119.4C783.634 127.8 786.234 138 786.234 150C786.234 151.333 786.168 152.867 786.034 154.6C785.901 156.333 785.768 157.933 785.634 159.4H699.834V139.4H765.434L751.034 145C751.168 140.067 750.234 135.8 748.234 132.2C746.368 128.6 743.701 125.8 740.234 123.8C736.901 121.8 732.968 120.8 728.434 120.8C723.901 120.8 719.901 121.8 716.434 123.8C713.101 125.8 710.501 128.667 708.634 132.4C706.768 136 705.834 140.267 705.834 145.2V151C705.834 156.333 706.901 160.933 709.034 164.8C711.301 168.667 714.501 171.667 718.634 173.8C722.768 175.8 727.701 176.8 733.434 176.8C738.768 176.8 743.301 176.067 747.034 174.6C750.901 173 754.701 170.6 758.434 167.4L778.434 188.2C773.234 193.933 766.834 198.333 759.234 201.4C751.634 204.333 742.634 205.8 732.234 205.8ZM788.225 204L838.025 138.6L837.225 160.2L789.425 95.6H832.225L859.025 133.8L843.025 134.6L871.425 95.6H911.625L863.825 158.8V138L913.025 204H869.625L841.625 163.2L857.625 165.4L829.425 204H788.225ZM975.263 206.8C963.796 206.8 952.729 205.4 942.063 202.6C931.529 199.667 922.929 195.933 916.263 191.4L929.263 162.2C935.529 166.2 942.729 169.533 950.863 172.2C959.129 174.733 967.329 176 975.463 176C980.929 176 985.329 175.533 988.663 174.6C991.996 173.533 994.396 172.2 995.863 170.6C997.463 168.867 998.263 166.867 998.263 164.6C998.263 161.4 996.796 158.867 993.863 157C990.929 155.133 987.129 153.6 982.463 152.4C977.796 151.2 972.596 150 966.863 148.8C961.263 147.6 955.596 146.067 949.863 144.2C944.263 142.333 939.129 139.933 934.463 137C929.796 133.933 925.996 130 923.063 125.2C920.129 120.267 918.662 114.067 918.662 106.6C918.662 98.2 920.929 90.6 925.463 83.8C930.129 77 937.063 71.5333 946.263 67.4C955.463 63.2667 966.929 61.2 980.663 61.2C989.863 61.2 998.863 62.2667 1007.66 64.4C1016.6 66.4 1024.53 69.4 1031.46 73.4L1019.26 102.8C1012.6 99.2 1006 96.5333 999.463 94.8C992.929 92.9333 986.596 92 980.463 92C974.996 92 970.596 92.6 967.263 93.8C963.929 94.8667 961.529 96.3333 960.063 98.2C958.596 100.067 957.863 102.2 957.863 104.6C957.863 107.667 959.263 110.133 962.062 112C964.996 113.733 968.796 115.2 973.463 116.4C978.263 117.467 983.463 118.6 989.063 119.8C994.796 121 1000.46 122.533 1006.06 124.4C1011.8 126.133 1017 128.533 1021.66 131.6C1026.33 134.533 1030.06 138.467 1032.86 143.4C1035.8 148.2 1037.26 154.267 1037.26 161.6C1037.26 169.733 1034.93 177.267 1030.26 184.2C1025.73 191 1018.86 196.467 1009.66 200.6C1000.6 204.733 989.129 206.8 975.263 206.8ZM1109.15 205.8C1097.15 205.8 1086.42 203.4 1076.95 198.6C1067.62 193.8 1060.29 187.2 1054.95 178.8C1049.62 170.267 1046.95 160.533 1046.95 149.6C1046.95 138.667 1049.62 129 1054.95 120.6C1060.29 112.2 1067.62 105.667 1076.95 101C1086.42 96.2 1097.15 93.8 1109.15 93.8C1121.42 93.8 1132.02 96.4 1140.95 101.6C1149.89 106.8 1156.22 114.133 1159.95 123.6L1130.55 138.6C1128.02 133.533 1124.89 129.867 1121.15 127.6C1117.42 125.2 1113.35 124 1108.95 124C1104.55 124 1100.55 125 1096.95 127C1093.35 129 1090.49 131.933 1088.35 135.8C1086.35 139.533 1085.35 144.133 1085.35 149.6C1085.35 155.2 1086.35 159.933 1088.35 163.8C1090.49 167.667 1093.35 170.6 1096.95 172.6C1100.55 174.6 1104.55 175.6 1108.95 175.6C1113.35 175.6 1117.42 174.467 1121.15 172.2C1124.89 169.8 1128.02 166.067 1130.55 161L1159.95 176C1156.22 185.467 1149.89 192.8 1140.95 198C1132.02 203.2 1121.42 205.8 1109.15 205.8ZM1240.46 204V183.8L1237.86 178.8V141.6C1237.86 135.6 1236 131 1232.26 127.8C1228.66 124.467 1222.86 122.8 1214.86 122.8C1209.66 122.8 1204.4 123.667 1199.06 125.4C1193.73 127 1189.2 129.267 1185.46 132.2L1172.66 106.4C1178.8 102.4 1186.13 99.3333 1194.66 97.2C1203.33 94.9333 1211.93 93.8 1220.46 93.8C1238.06 93.8 1251.66 97.8667 1261.26 106C1271 114 1275.86 126.6 1275.86 143.8V204H1240.46ZM1208.46 205.8C1199.8 205.8 1192.46 204.333 1186.46 201.4C1180.46 198.467 1175.86 194.467 1172.66 189.4C1169.6 184.333 1168.06 178.667 1168.06 172.4C1168.06 165.733 1169.73 160 1173.06 155.2C1176.53 150.267 1181.8 146.533 1188.86 144C1195.93 141.333 1205.06 140 1216.26 140H1241.86V159.8H1221.46C1215.33 159.8 1211 160.8 1208.46 162.8C1206.06 164.8 1204.86 167.467 1204.86 170.8C1204.86 174.133 1206.13 176.8 1208.66 178.8C1211.2 180.8 1214.66 181.8 1219.06 181.8C1223.2 181.8 1226.93 180.8 1230.26 178.8C1233.73 176.667 1236.26 173.467 1237.86 169.2L1243.06 183.2C1241.06 190.667 1237.13 196.333 1231.26 200.2C1225.53 203.933 1217.93 205.8 1208.46 205.8ZM1370.45 93.8C1378.85 93.8 1386.45 95.5333 1393.25 99C1400.05 102.333 1405.38 107.533 1409.25 114.6C1413.25 121.667 1415.25 130.8 1415.25 142V204H1377.25V148.2C1377.25 140.467 1375.65 134.867 1372.45 131.4C1369.38 127.8 1365.05 126 1359.45 126C1355.45 126 1351.78 126.933 1348.45 128.8C1345.12 130.533 1342.52 133.267 1340.65 137C1338.78 140.733 1337.85 145.6 1337.85 151.6V204H1299.85V95.6H1336.05V126.4L1329.05 117.4C1333.18 109.533 1338.85 103.667 1346.05 99.8C1353.25 95.8 1361.38 93.8 1370.45 93.8Z" fill="#E7B300"/>
<path d="M529.2 323.64C525.413 323.64 522.16 322.84 519.44 321.24C516.72 319.64 514.64 317.213 513.2 313.96C511.76 310.653 511.04 306.493 511.04 301.48C511.04 296.413 511.787 292.253 513.28 289C514.827 285.747 516.96 283.32 519.68 281.72C522.4 280.12 525.573 279.32 529.2 279.32C533.253 279.32 536.88 280.227 540.08 282.04C543.333 283.853 545.893 286.413 547.76 289.72C549.68 293.027 550.64 296.947 550.64 301.48C550.64 305.96 549.68 309.853 547.76 313.16C545.893 316.467 543.333 319.053 540.08 320.92C536.88 322.733 533.253 323.64 529.2 323.64ZM503.76 323V263.64H516.24V288.68L515.44 301.4L515.68 314.2V323H503.76ZM527.04 313.4C529.12 313.4 530.96 312.92 532.56 311.96C534.213 311 535.52 309.64 536.48 307.88C537.493 306.067 538 303.933 538 301.48C538 298.973 537.493 296.84 536.48 295.08C535.52 293.32 534.213 291.96 532.56 291C530.96 290.04 529.12 289.56 527.04 289.56C524.96 289.56 523.093 290.04 521.44 291C519.787 291.96 518.48 293.32 517.52 295.08C516.56 296.84 516.08 298.973 516.08 301.48C516.08 303.933 516.56 306.067 517.52 307.88C518.48 309.64 519.787 311 521.44 311.96C523.093 312.92 524.96 313.4 527.04 313.4ZM563.263 339.16C561.023 339.16 558.809 338.813 556.623 338.12C554.436 337.427 552.649 336.467 551.262 335.24L555.823 326.36C556.783 327.213 557.876 327.88 559.103 328.36C560.383 328.84 561.636 329.08 562.863 329.08C564.623 329.08 566.009 328.653 567.023 327.8C568.089 327 569.049 325.64 569.903 323.72L572.143 318.44L573.103 317.08L588.543 279.96H600.543L581.103 325.64C579.716 329.107 578.116 331.827 576.303 333.8C574.543 335.773 572.569 337.16 570.383 337.96C568.249 338.76 565.876 339.16 563.263 339.16ZM570.623 324.68L551.422 279.96H564.303L579.183 315.96L570.623 324.68ZM640.771 310.2L640.051 295.24L666.851 267H681.251L657.091 293L649.891 300.68L640.771 310.2ZM629.171 323V267H642.051V323H629.171ZM667.491 323L647.571 298.6L656.051 289.4L682.611 323H667.491ZM712.973 323V314.6L712.173 312.76V297.72C712.173 295.053 711.346 292.973 709.693 291.48C708.093 289.987 705.613 289.24 702.253 289.24C699.959 289.24 697.693 289.613 695.453 290.36C693.266 291.053 691.399 292.013 689.853 293.24L685.373 284.52C687.719 282.867 690.546 281.587 693.853 280.68C697.159 279.773 700.519 279.32 703.933 279.32C710.493 279.32 715.586 280.867 719.213 283.96C722.839 287.053 724.653 291.88 724.653 298.44V323H712.973ZM699.853 323.64C696.493 323.64 693.613 323.08 691.213 321.96C688.813 320.787 686.973 319.213 685.693 317.24C684.413 315.267 683.773 313.053 683.773 310.6C683.773 308.04 684.386 305.8 685.613 303.88C686.893 301.96 688.893 300.467 691.613 299.4C694.333 298.28 697.879 297.72 702.253 297.72H713.693V305H703.613C700.679 305 698.653 305.48 697.533 306.44C696.466 307.4 695.933 308.6 695.933 310.04C695.933 311.64 696.546 312.92 697.773 313.88C699.053 314.787 700.786 315.24 702.973 315.24C705.053 315.24 706.919 314.76 708.573 313.8C710.226 312.787 711.426 311.32 712.173 309.4L714.093 315.16C713.186 317.933 711.533 320.04 709.133 321.48C706.733 322.92 703.639 323.64 699.853 323.64ZM754.74 323.64C750.687 323.64 747.033 322.733 743.78 320.92C740.527 319.053 737.94 316.467 736.02 313.16C734.153 309.853 733.22 305.96 733.22 301.48C733.22 296.947 734.153 293.027 736.02 289.72C737.94 286.413 740.527 283.853 743.78 282.04C747.033 280.227 750.687 279.32 754.74 279.32C758.367 279.32 761.54 280.12 764.26 281.72C766.98 283.32 769.087 285.747 770.58 289C772.073 292.253 772.82 296.413 772.82 301.48C772.82 306.493 772.1 310.653 770.66 313.96C769.22 317.213 767.14 319.64 764.42 321.24C761.753 322.84 758.527 323.64 754.74 323.64ZM756.9 313.4C758.927 313.4 760.767 312.92 762.42 311.96C764.073 311 765.38 309.64 766.34 307.88C767.353 306.067 767.86 303.933 767.86 301.48C767.86 298.973 767.353 296.84 766.34 295.08C765.38 293.32 764.073 291.96 762.42 291C760.767 290.04 758.927 289.56 756.9 289.56C754.82 289.56 752.953 290.04 751.3 291C749.647 291.96 748.313 293.32 747.3 295.08C746.34 296.84 745.86 298.973 745.86 301.48C745.86 303.933 746.34 306.067 747.3 307.88C748.313 309.64 749.647 311 751.3 311.96C752.953 312.92 754.82 313.4 756.9 313.4ZM768.18 323V314.2L768.42 301.4L767.62 288.68V263.64H780.1V323H768.18ZM813.011 323.64C808.104 323.64 803.784 322.68 800.051 320.76C796.371 318.84 793.517 316.227 791.491 312.92C789.464 309.56 788.451 305.747 788.451 301.48C788.451 297.16 789.437 293.347 791.411 290.04C793.437 286.68 796.184 284.067 799.651 282.2C803.117 280.28 807.037 279.32 811.411 279.32C815.624 279.32 819.411 280.227 822.771 282.04C826.184 283.8 828.877 286.36 830.851 289.72C832.824 293.027 833.811 297 833.811 301.64C833.811 302.12 833.784 302.68 833.731 303.32C833.677 303.907 833.624 304.467 833.571 305H798.611V297.72H827.011L822.211 299.88C822.211 297.64 821.757 295.693 820.851 294.04C819.944 292.387 818.691 291.107 817.091 290.2C815.491 289.24 813.624 288.76 811.491 288.76C809.357 288.76 807.464 289.24 805.811 290.2C804.211 291.107 802.957 292.413 802.051 294.12C801.144 295.773 800.691 297.747 800.691 300.04V301.96C800.691 304.307 801.197 306.387 802.211 308.2C803.277 309.96 804.744 311.32 806.611 312.28C808.531 313.187 810.771 313.64 813.331 313.64C815.624 313.64 817.624 313.293 819.331 312.6C821.091 311.907 822.691 310.867 824.131 309.48L830.771 316.68C828.797 318.92 826.317 320.653 823.331 321.88C820.344 323.053 816.904 323.64 813.011 323.64ZM843.639 323V279C843.639 274.147 845.079 270.28 847.959 267.4C850.839 264.467 854.946 263 860.279 263C862.093 263 863.826 263.187 865.479 263.56C867.186 263.933 868.626 264.52 869.799 265.32L866.519 274.36C865.826 273.88 865.053 273.507 864.199 273.24C863.346 272.973 862.439 272.84 861.479 272.84C859.666 272.84 858.253 273.373 857.239 274.44C856.279 275.453 855.799 277 855.799 279.08V283.08L856.119 288.44V323H843.639ZM836.999 290.52V280.92H866.839V290.52H836.999ZM873.879 323V279.96H886.359V323H873.879ZM880.119 273.96C877.826 273.96 875.959 273.293 874.519 271.96C873.079 270.627 872.359 268.973 872.359 267C872.359 265.027 873.079 263.373 874.519 262.04C875.959 260.707 877.826 260.04 880.119 260.04C882.413 260.04 884.279 260.68 885.719 261.96C887.159 263.187 887.879 264.787 887.879 266.76C887.879 268.84 887.159 270.573 885.719 271.96C884.333 273.293 882.466 273.96 880.119 273.96ZM902.621 323.64C900.487 323.64 898.647 322.92 897.101 321.48C895.607 319.987 894.861 318.093 894.861 315.8C894.861 313.507 895.607 311.667 897.101 310.28C898.647 308.84 900.487 308.12 902.621 308.12C904.807 308.12 906.647 308.84 908.141 310.28C909.634 311.667 910.381 313.507 910.381 315.8C910.381 318.093 909.634 319.987 908.141 321.48C906.647 322.92 904.807 323.64 902.621 323.64ZM919.718 323V267H930.438L954.278 306.52H948.598L972.038 267H982.678L982.838 323H970.678L970.598 285.64H972.838L954.118 317.08H948.278L929.158 285.64H931.878V323H919.718ZM1015.72 323.64C1011.14 323.64 1007.06 322.68 1003.48 320.76C999.964 318.84 997.164 316.227 995.084 312.92C993.058 309.56 992.044 305.747 992.044 301.48C992.044 297.16 993.058 293.347 995.084 290.04C997.164 286.68 999.964 284.067 1003.48 282.2C1007.06 280.28 1011.14 279.32 1015.72 279.32C1020.26 279.32 1024.31 280.28 1027.88 282.2C1031.46 284.067 1034.26 286.653 1036.28 289.96C1038.31 293.267 1039.32 297.107 1039.32 301.48C1039.32 305.747 1038.31 309.56 1036.28 312.92C1034.26 316.227 1031.46 318.84 1027.88 320.76C1024.31 322.68 1020.26 323.64 1015.72 323.64ZM1015.72 313.4C1017.8 313.4 1019.67 312.92 1021.32 311.96C1022.98 311 1024.28 309.64 1025.24 307.88C1026.2 306.067 1026.68 303.933 1026.68 301.48C1026.68 298.973 1026.2 296.84 1025.24 295.08C1024.28 293.32 1022.98 291.96 1021.32 291C1019.67 290.04 1017.8 289.56 1015.72 289.56C1013.64 289.56 1011.78 290.04 1010.12 291C1008.47 291.96 1007.14 293.32 1006.12 295.08C1005.16 296.84 1004.68 298.973 1004.68 301.48C1004.68 303.933 1005.16 306.067 1006.12 307.88C1007.14 309.64 1008.47 311 1010.12 311.96C1011.78 312.92 1013.64 313.4 1015.72 313.4ZM1073.83 279.32C1077.24 279.32 1080.28 280.013 1082.95 281.4C1085.67 282.733 1087.8 284.813 1089.35 287.64C1090.89 290.413 1091.67 293.987 1091.67 298.36V323H1079.19V300.28C1079.19 296.813 1078.41 294.253 1076.87 292.6C1075.37 290.947 1073.24 290.12 1070.47 290.12C1068.49 290.12 1066.71 290.547 1065.11 291.4C1063.56 292.2 1062.33 293.453 1061.43 295.16C1060.57 296.867 1060.15 299.053 1060.15 301.72V323H1047.67V279.96H1059.59V291.88L1057.35 288.28C1058.89 285.4 1061.11 283.187 1063.99 281.64C1066.87 280.093 1070.15 279.32 1073.83 279.32ZM1124.65 323.64C1119.74 323.64 1115.42 322.68 1111.69 320.76C1108.01 318.84 1105.16 316.227 1103.13 312.92C1101.1 309.56 1100.09 305.747 1100.09 301.48C1100.09 297.16 1101.08 293.347 1103.05 290.04C1105.08 286.68 1107.82 284.067 1111.29 282.2C1114.76 280.28 1118.68 279.32 1123.05 279.32C1127.26 279.32 1131.05 280.227 1134.41 282.04C1137.82 283.8 1140.52 286.36 1142.49 289.72C1144.46 293.027 1145.45 297 1145.45 301.64C1145.45 302.12 1145.42 302.68 1145.37 303.32C1145.32 303.907 1145.26 304.467 1145.21 305H1110.25V297.72H1138.65L1133.85 299.88C1133.85 297.64 1133.4 295.693 1132.49 294.04C1131.58 292.387 1130.33 291.107 1128.73 290.2C1127.13 289.24 1125.26 288.76 1123.13 288.76C1121 288.76 1119.1 289.24 1117.45 290.2C1115.85 291.107 1114.6 292.413 1113.69 294.12C1112.78 295.773 1112.33 297.747 1112.33 300.04V301.96C1112.33 304.307 1112.84 306.387 1113.85 308.2C1114.92 309.96 1116.38 311.32 1118.25 312.28C1120.17 313.187 1122.41 313.64 1124.97 313.64C1127.26 313.64 1129.26 313.293 1130.97 312.6C1132.73 311.907 1134.33 310.867 1135.77 309.48L1142.41 316.68C1140.44 318.92 1137.96 320.653 1134.97 321.88C1131.98 323.053 1128.54 323.64 1124.65 323.64ZM1158.42 339.16C1156.18 339.16 1153.97 338.813 1151.78 338.12C1149.59 337.427 1147.81 336.467 1146.42 335.24L1150.98 326.36C1151.94 327.213 1153.03 327.88 1154.26 328.36C1155.54 328.84 1156.79 329.08 1158.02 329.08C1159.78 329.08 1161.17 328.653 1162.18 327.8C1163.25 327 1164.21 325.64 1165.06 323.72L1167.3 318.44L1168.26 317.08L1183.7 279.96H1195.7L1176.26 325.64C1174.87 329.107 1173.27 331.827 1171.46 333.8C1169.7 335.773 1167.73 337.16 1165.54 337.96C1163.41 338.76 1161.03 339.16 1158.42 339.16ZM1165.78 324.68L1146.58 279.96H1159.46L1174.34 315.96L1165.78 324.68Z" fill="#B4B4B4"/>
<path d="M365.372 239.675L172.026 317.549L207.202 103.92L365.372 239.675Z" fill="#27C8BC"/>
<path d="M274.8 161.927L81.4535 239.801L116.63 26.1713L274.8 161.927Z" fill="#FF007F"/>
<path d="M254.654 284.279L61.307 362.153L96.4837 148.523L254.654 284.279Z" fill="#E7B300"/>
<path fill-rule="evenodd" clip-rule="evenodd" d="M187.492 225.881L255.081 283.893L172.46 317.17L187.492 225.881Z" fill="#27C8BC"/>
</svg>
